<svg xmlns="http://www.w3.org/2000/svg" viewBox="0 0 1150 540" role="img" aria-labelledby="title desc">
  <title id="title">The Office On Rent logo</title>
  <desc id="desc">Colorful office mark with Office Rent wordmark.</desc>
  <rect width="1150" height="540" fill="#000000"/>
  <g transform="translate(130 112)">
    <rect x="0" y="0" width="885" height="305" fill="#ffffff"/>
    <path d="M88 78 L332 16 L338 162 L161 204 C101 255 91 318 138 416 C83 300 70 177 88 78Z" fill="#f5a900"/>
    <path d="M139 119 L400 54 L390 184 L174 234 C124 285 107 348 138 416 C99 303 105 205 139 119Z" fill="#71bf25"/>
    <path d="M183 150 L445 88 L430 202 L210 252 C154 307 142 365 138 416 C112 302 127 219 183 150Z" fill="#0498a8"/>
    <path d="M430 98 L508 88 L488 202 L426 216 Z" fill="#4f2a81" opacity="0.92"/>
    <path d="M502 105 L545 92 L520 172 L488 202 Z" fill="#b00691"/>
    <rect x="232" y="205" width="308" height="96" fill="#000000"/>
    <rect x="535" y="205" width="348" height="96" fill="#000000"/>
    <path d="M540 301 L504 266 L504 205 L540 205 Z" fill="#000000"/>
    <text x="66" y="292" font-family="Arial Black, Arial, Helvetica, sans-serif" font-size="118" font-weight="900" letter-spacing="-8" fill="#000000">OFFICE</text>
    <text x="585" y="292" font-family="Arial Black, Arial, Helvetica, sans-serif" font-size="116" font-weight="900" letter-spacing="2" fill="#079aa8">RENT</text>
  </g>
</svg>
